<svg width="24px" height="24px" version="1.1" xmlns="http://www.w3.org/2000/svg">
    <g stroke="currentColor" fill="currentColor" stroke-width="1">
        <path d="M8.99793431,17.9985348 L8.96211481,17.9959585 C8.73926265,17.9759185 8.52175215,17.8813416 8.3500159,17.71195 L2.79624371,12.2104415 C2.40387772,11.8217676 2.40088466,11.1886097 2.78955853,10.7962437 C3.17823239,10.4038777 3.8113903,10.4008847 4.20375629,10.7895585 L9.04399993,15.5834862 L19.2409309,5.24625614 C19.6287619,4.85305703 20.2619119,4.84870533 20.6551111,5.23653636 C21.0483102,5.62436739 21.0526619,6.25751741 20.6648308,6.65071652 L9.76419606,17.7022302 C9.70090516,17.7663971 9.63108102,17.8202084 9.55683265,17.8636496 C9.5174093,17.8867215 9.47662371,17.9069178 9.43490359,17.9241713 C9.38857789,17.9433279 9.34109351,17.9588594 9.29289059,17.9707599 C9.24768974,17.9819175 9.20193892,17.9898714 9.15591761,17.9946414 C9.10378262,18.000016 9.05184796,18.0013348 9.00007711,17.998649 Z"></path>
    </g></svg>