<svg xmlns="http://www.w3.org/2000/svg" xml:space="preserve" width="800" height="800" viewBox="0 0 512 512"><path d="M256 0c-9.217 0-16.696 7.473-16.696 16.696v478.609c0 9.223 7.479 16.696 16.696 16.696s16.696-7.473 16.696-16.696V16.696C272.696 7.473 265.217 0 256 0M105.739 44.522c-36.826 0-66.783 29.956-66.783 66.783s29.956 66.783 66.783 66.783 66.783-29.956 66.783-66.783-29.957-66.783-66.783-66.783m300.522 0c-36.826 0-66.783 29.956-66.783 66.783s29.956 66.783 66.783 66.783 66.783-29.956 66.783-66.783c-.001-36.827-29.957-66.783-66.783-66.783M202.935 218.664a16.67 16.67 0 0 0-13.717-7.186H22.261a16.67 16.67 0 0 0-13.717 7.185 16.7 16.7 0 0 0-1.913 15.374l49.022 130.729v63.755c0 27.619 22.468 50.087 50.087 50.087s50.087-22.468 50.087-50.087v-63.755l49.022-130.728a16.7 16.7 0 0 0-1.914-15.374M505.37 355.875 455.283 222.31a16.695 16.695 0 0 0-15.63-10.831H372.87a16.69 16.69 0 0 0-15.63 10.831l-50.087 133.565a16.69 16.69 0 0 0 1.913 15.374 16.67 16.67 0 0 0 13.717 7.186h33.391v50.087c0 27.619 22.468 50.087 50.087 50.087s50.087-22.468 50.087-50.087v-50.087h33.391a16.67 16.67 0 0 0 13.717-7.185 16.7 16.7 0 0 0 1.914-15.375"/></svg>